<?xml version="1.0" encoding="utf-8"?>
<!-- Generator: Adobe Illustrator 16.0.0, SVG Export Plug-In . SVG Version: 6.00 Build 0)  -->
<!DOCTYPE svg PUBLIC "-//W3C//DTD SVG 1.1//EN" "http://www.w3.org/Graphics/SVG/1.1/DTD/svg11.dtd">
<svg version="1.1" id="Layer_1" xmlns="http://www.w3.org/2000/svg" xmlns:xlink="http://www.w3.org/1999/xlink" x="0px" y="0px"
	 width="600px" height="600px" viewBox="0 0 600 600" enable-background="new 0 0 600 600" xml:space="preserve">
<path fill="#FFDD00" d="M585.611,298.491c0,149.991-123.639,271.561-276.154,271.561c-152.515,0-276.154-121.57-276.154-271.561
	c0-149.972,123.639-271.553,276.154-271.553C461.973,26.938,585.611,148.52,585.611,298.491z"/>
<g>
	<path fill="#FFFFFF" d="M311.436,44c-141.158,0-256,114.842-256,256c0,141.158,114.842,256,256,256c141.158,0,256-114.842,256-256
		C567.436,158.842,452.594,44,311.436,44z M311.436,538.933C179.69,538.933,72.502,431.746,72.502,300
		c0-131.746,107.188-238.934,238.933-238.934c131.746,0,238.934,107.188,238.934,238.934
		C550.369,431.746,443.182,538.933,311.436,538.933z"/>
	<path fill="#FFFFFF" d="M311.436,95.199c-4.711,0-8.533,3.814-8.533,8.533V300h-128c-4.711,0-8.533,3.814-8.533,8.533
		s3.822,8.533,8.533,8.533h136.533c4.711,0,8.533-3.814,8.533-8.533V103.732C319.969,99.014,316.146,95.199,311.436,95.199z"/>
</g>
</svg>
