<?xml version="1.0" encoding="iso-8859-1"?>
<!-- Generator: Adobe Illustrator 19.0.0, SVG Export Plug-In . SVG Version: 6.00 Build 0)  -->
<svg version="1.1" id="Capa_1" xmlns="http://www.w3.org/2000/svg" xmlns:xlink="http://www.w3.org/1999/xlink" x="0px" y="0px"
	 viewBox="0 0 60 60" style="enable-background:new 0 0 60 60;" xml:space="preserve">
<g>
	<g>
		<path d="M59,50c0.6,0,1-0.4,1-1V1c0-0.6-0.4-1-1-1H1C0.4,0,0,0.4,0,1v48c0,0.6,0.4,1,1,1h10v8H0v2h60v-2H49v-8H59z M58,2v6H2V2H58
			z M2,48V36h6c0.3,0,0.5-0.1,0.7-0.3L27,17.4V20h2v-5c0-0.6-0.4-1-1-1h-5v2h2.6l-18,18H2V10h56v38h-9V19c0-0.6-0.4-1-1-1H36
			c-0.6,0-1,0.4-1,1v7H24c-0.6,0-1,0.4-1,1v13H12c-0.6,0-1,0.4-1,1v7H2z M25,41V28h10v30H25V41z M13,42h10v16H13V42z M37,58V27v-7
			h10v38H37z"/>
		<rect x="4" y="4" width="4" height="2"/>
		<rect x="10" y="4" width="4" height="2"/>
		<rect x="29" y="31" width="2" height="3"/>
		<rect x="29" y="37" width="2" height="3"/>
		<rect x="29" y="43" width="2" height="3"/>
		<rect x="29" y="49" width="2" height="3"/>
		<rect x="17" y="45" width="2" height="3"/>
		<rect x="17" y="51" width="2" height="3"/>
		<rect x="41" y="23" width="2" height="3"/>
		<rect x="41" y="29" width="2" height="3"/>
		<rect x="41" y="35" width="2" height="3"/>
		<rect x="41" y="41" width="2" height="3"/>
	</g>
</g>
<g>
</g>
<g>
</g>
<g>
</g>
<g>
</g>
<g>
</g>
<g>
</g>
<g>
</g>
<g>
</g>
<g>
</g>
<g>
</g>
<g>
</g>
<g>
</g>
<g>
</g>
<g>
</g>
<g>
</g>
</svg>
