<?xml version="1.0" encoding="utf-8"?>
<!-- Generator: Adobe Illustrator 16.0.0, SVG Export Plug-In . SVG Version: 6.00 Build 0)  -->
<!DOCTYPE svg PUBLIC "-//W3C//DTD SVG 1.1//EN" "http://www.w3.org/Graphics/SVG/1.1/DTD/svg11.dtd">
<svg version="1.1" id="Layer_1" xmlns="http://www.w3.org/2000/svg" xmlns:xlink="http://www.w3.org/1999/xlink" x="0px" y="0px"
	 width="600px" height="600px" viewBox="0 0 600 600" enable-background="new 0 0 600 600" xml:space="preserve">
<path fill="#ED1C24" d="M578.791,304.002c0,146.649-118.883,265.532-265.534,265.532c-146.65,0-265.527-118.883-265.527-265.532
	c0-146.651,118.877-265.534,265.527-265.534C459.908,38.468,578.791,157.351,578.791,304.002z"/>
<g>
	<g>
		<path fill="#FFFFFF" d="M314.044,46.534c-141.356,0-256,114.644-256,256c0,141.357,114.644,256,256,256s256-114.643,256-256
			C570.044,161.178,455.4,46.534,314.044,46.534z M80.305,302.534c0-129.113,104.626-233.739,233.739-233.739
			c61.218,0,116.869,23.374,158.608,62.331L142.079,460.587C103.679,419.403,80.305,363.751,80.305,302.534z M314.044,536.274
			c-60.104,0-114.644-22.818-155.826-59.549l330.018-330.018c36.73,41.183,59.548,95.723,59.548,155.826
			C547.783,431.647,443.157,536.274,314.044,536.274z"/>
	</g>
</g>
</svg>
