<?xml version="1.0" encoding="utf-8"?>
<!-- Generator: Adobe Illustrator 16.0.0, SVG Export Plug-In . SVG Version: 6.00 Build 0)  -->
<!DOCTYPE svg PUBLIC "-//W3C//DTD SVG 1.1//EN" "http://www.w3.org/Graphics/SVG/1.1/DTD/svg11.dtd">
<svg version="1.1" id="Layer_1" xmlns="http://www.w3.org/2000/svg" xmlns:xlink="http://www.w3.org/1999/xlink" x="0px" y="0px"
	 width="600px" height="600px" viewBox="0 0 600 600" enable-background="new 0 0 600 600" xml:space="preserve">
<circle fill="#00944A" cx="308.26" cy="302.534" r="265.531"/>
<g>
	<path fill="#FFFFFF" d="M308.574,44c-141.154,0-256,114.836-256,256s114.846,256,256,256s256-114.836,256-256
		S449.728,44,308.574,44z M308.574,536.308C178.28,536.308,72.266,430.294,72.266,300S178.28,63.692,308.574,63.692
		S544.881,169.706,544.881,300S438.868,536.308,308.574,536.308z"/>
	<path fill="#FFFFFF" d="M429.208,195L277.883,365.24l-91.166-72.93c-4.234-3.397-10.447-2.698-13.834,1.536
		c-3.397,4.253-2.708,10.447,1.536,13.843l98.461,78.77c1.812,1.447,3.988,2.156,6.154,2.156c2.718,0,5.425-1.122,7.365-3.309
		l157.539-177.23c3.613-4.057,3.249-10.289-0.817-13.893C439.045,190.56,432.833,190.924,429.208,195z"/>
</g>
</svg>
