<?xml version="1.0" encoding="UTF-8"?>
<svg x="415px" y="481px" style="enable-background:new 0 0 415 481" viewBox="0 0 415 481" version="1.1" xmlns="http://www.w3.org/2000/svg" xmlns:xlink="http://www.w3.org/1999/xlink" xml:space="preserve">
    <g id="Page-1" stroke="none" stroke-width="1" fill="none" fill-rule="evenodd">
        <g id="money-bag" fill-rule="nonzero" fill="#000000">
            <path d="M223.7,301.9 L196.2,301.9 C186.2,301.9 178.1,293.8 178.1,283.8 C178.1,273.8 186.2,265.7 196.2,265.7 L244.6,265.7 C251.2,265.7 256.6,260.3 256.6,253.7 C256.6,247.1 251.2,241.7 244.6,241.7 L221.9,241.7 L221.9,225 C221.9,218.4 216.5,213 209.9,213 C203.3,213 197.9,218.4 197.9,225 L197.9,241.7 L196.2,241.7 C173,241.7 154.1,260.6 154.1,283.8 C154.1,307 173,325.9 196.2,325.9 L223.7,325.9 C233.7,325.9 241.8,334 241.8,344 C241.8,354 233.7,362.1 223.7,362.1 L174.4,362.1 C167.8,362.1 162.4,367.5 162.4,374.1 C162.4,380.7 167.8,386.1 174.4,386.1 L198,386.1 L198,403.2 C198,409.8 203.4,415.2 210,415.2 C216.6,415.2 222,409.8 222,403.2 L222,386.1 L224,386.1 C224.1,386.1 224.2,386.1 224.3,386.1 C247.3,385.8 265.8,367 265.8,344 C265.8,320.8 246.9,301.9 223.7,301.9 Z" id="Shape"></path>
            <path d="M390.3,274.7 C377.7,245.7 360.3,217.6 338.3,191.3 C311.7,159.3 285.2,137.9 271.7,128 L322.7,33.4 C325.2,28.7 324.4,22.9 320.5,19.2 C307.3,6.3 293.3,0 277.7,0 C263.4,0 250.3,5.4 238.9,10.2 C229.9,13.9 221.4,17.5 214.5,17.5 C212.4,17.5 210.6,17.2 208.8,16.5 C185,7.8 166.7,2.4 149,2.4 C126.6,2.4 107.5,11.4 88.8,30.6 C84.9,34.6 84.3,40.9 87.4,45.6 L142.4,128.7 C128.8,138.8 102.8,160 76.7,191.3 C54.8,217.6 37.3,245.7 24.7,274.7 C8.9,311.2 0.9,349.3 0.9,387.9 C0.9,439.2 42.7,481 94,481 L321,481 C372.3,481 414.1,439.2 414.1,387.9 C414.1,349.3 406.1,311.2 390.3,274.7 Z M113,40.6 C124.6,30.6 135.7,26.2 149,26.2 C163.2,26.2 179.2,31 200.5,38.9 C204.9,40.5 209.6,41.3 214.4,41.3 C226.1,41.3 237.3,36.7 248,32.2 C258.3,27.9 268.1,23.8 277.6,23.8 C282.2,23.8 288.7,24.6 296.9,30.4 L248.9,119.6 L165.3,119.6 L113,40.6 Z M321,457 L94,457 C55.9,457 24.9,426 24.9,387.9 C24.9,323.8 48.4,263 94.6,207.2 C123.8,171.9 153.5,150 162.5,143.6 L252.3,143.6 C261.4,149.9 291,171.9 320.2,207.2 C366.5,263 389.9,323.7 389.9,387.9 C390.1,426 359.1,457 321,457 Z" id="Shape"></path>
        </g>
    </g>
</svg>
