<?xml version="1.0" encoding="utf-8"?>
<!-- Generator: Adobe Illustrator 16.0.0, SVG Export Plug-In . SVG Version: 6.00 Build 0)  -->
<!DOCTYPE svg PUBLIC "-//W3C//DTD SVG 1.1//EN" "http://www.w3.org/Graphics/SVG/1.1/DTD/svg11.dtd">
<svg version="1.1" id="Capa_1" xmlns="http://www.w3.org/2000/svg" xmlns:xlink="http://www.w3.org/1999/xlink" x="0px" y="0px"
	 width="512px" height="512px" viewBox="0 0 512 512" enable-background="new 0 0 512 512" xml:space="preserve">
<g>
	<g>
		<path fill="#FFFFFF" d="M428.108,232.335c18.284-18.203,12.635-55.023-19.035-55.023l-83.331,0.056
			c3.165-17.647,7.748-46.9,7.567-49.661c-1.75-26.158-18.425-57.994-19.146-59.297c-3.041-5.664-18.396-13.342-33.849-10.052
			c-19.978,4.277-22.019,17.021-21.938,20.534c0,0,0.861,34.863,0.945,44.166c-9.552,20.979-42.485,76.11-52.468,80.359
			c-2.388-1.445-5.096-2.222-7.913-2.222H93.663c-8.942,0-16.134,7.231-16.134,16.132l0.014,145.503
			c0.626,7.844,7.29,13.996,15.161,13.996h94.562c8.387,0,15.204-6.818,15.204-15.204v-4.83c0,0,3.514-0.263,5.109,0.763
			c6.08,3.86,13.594,8.719,23.394,8.719h141.115c52.759,0,47.095-46.83,42.276-53.217c8.914-9.705,14.427-26.823,6.901-40.348
			C427.041,266.588,437.204,249.76,428.108,232.335z M184.018,361.595H92.676V216.382h91.342V361.595z M403.493,231.085l-0.86,3.595
			c24.311,6.913,11.371,34.933-6.069,36.75l-0.86,3.595c23.311,5.929,12.189,34.779-6.068,36.75l-0.861,3.581
			c19.036,3.125,14.427,35.612-14.412,35.612l-143.532,0.056c-10.136,0-19.369-11.55-26.824-11.55h-6.506V227.697
			c8.109-5.026,18.077-11.55,23.618-16.258c10.468-8.928,53.313-78.165,53.313-86.83c0-8.665-0.944-46.15-0.944-46.15
			s8.4-10.829,27.156-2.93c0,0,15.785,29.6,17.396,53.189c0,0-7.108,48.593-10.927,63.838h99.507
			C431.066,192.585,426.4,227.49,403.493,231.085z"/>
	</g>
</g>
</svg>
