<?xml version="1.0" encoding="utf-8"?>
<!-- Generator: Adobe Illustrator 16.0.0, SVG Export Plug-In . SVG Version: 6.00 Build 0)  -->
<!DOCTYPE svg PUBLIC "-//W3C//DTD SVG 1.1//EN" "http://www.w3.org/Graphics/SVG/1.1/DTD/svg11.dtd">
<svg version="1.1" id="Layer_1" xmlns="http://www.w3.org/2000/svg" xmlns:xlink="http://www.w3.org/1999/xlink" x="0px" y="0px"
	 width="600px" height="600px" viewBox="0 0 600 600" enable-background="new 0 0 600 600" xml:space="preserve">
<circle fill="#C01F50" cx="298" cy="286.723" r="249.979"/>
<g>
	<path fill="#FFFFFF" d="M300.025,374.635c-7.454,0-13.499,6.044-13.499,13.499v95.819c0,7.456,6.045,13.499,13.499,13.499
		c7.458,0,13.499-6.043,13.499-13.499v-95.819C313.524,380.679,307.483,374.635,300.025,374.635z"/>
	<path fill="#FFFFFF" d="M300.025,86.939c-7.454,0-13.499,6.044-13.499,13.499v95.796c0,7.455,6.045,13.499,13.499,13.499
		c7.458,0,13.499-6.044,13.499-13.499v-95.796C313.524,92.983,307.483,86.939,300.025,86.939z"/>
	<path fill="#FFFFFF" d="M217.651,292.222c0-7.455-6.043-13.499-13.5-13.499h-95.909c-7.457,0-13.499,6.044-13.499,13.499
		c0,7.456,6.042,13.499,13.499,13.499h95.909C211.608,305.721,217.651,299.678,217.651,292.222z"/>
	<path fill="#FFFFFF" d="M491.759,278.723h-95.861c-7.457,0-13.498,6.044-13.498,13.499c0,7.456,6.041,13.499,13.498,13.499h95.861
		c7.455,0,13.499-6.043,13.499-13.499C505.258,284.767,499.214,278.723,491.759,278.723z"/>
	<path fill="#FFFFFF" d="M222.657,350.446l-67.778,67.799c-5.272,5.273-5.27,13.819,0.001,19.092
		c2.638,2.635,6.092,3.952,9.545,3.952c3.456,0,6.91-1.317,9.547-3.954l67.779-67.8c5.271-5.273,5.271-13.818-0.004-19.092
		C236.475,345.173,227.927,345.173,222.657,350.446z"/>
	<path fill="#FFFFFF" d="M222.59,233.881c2.635,2.637,6.091,3.955,9.544,3.955c3.455,0,6.91-1.318,9.548-3.955
		c5.271-5.272,5.271-13.819-0.003-19.089l-67.709-67.708c-5.271-5.274-13.817-5.272-19.09,0c-5.271,5.272-5.271,13.819,0.002,19.089
		L222.59,233.881z"/>
	<path fill="#FFFFFF" d="M377.384,350.534c-5.275-5.27-13.823-5.269-19.09,0.005c-5.271,5.274-5.268,13.821,0.006,19.092
		l67.75,67.706c2.636,2.633,6.088,3.95,9.542,3.95s6.913-1.319,9.548-3.956c5.272-5.273,5.269-13.821-0.005-19.091L377.384,350.534z
		"/>
</g>
</svg>
